<mxfile host="app.diagrams.net" agent="Mozilla/5.0 (Windows NT 10.0; Win64; x64) AppleWebKit/537.36 (KHTML, like Gecko) Chrome/129.0.0.0 Safari/537.36 Edg/129.0.0.0" version="24.7.16">
  <diagram name="第 1 页" id="gsBER9VK95b6QzUCzdSn">
    <mxGraphModel dx="1159" dy="623" grid="1" gridSize="10" guides="1" tooltips="1" connect="1" arrows="1" fold="1" page="1" pageScale="1" pageWidth="827" pageHeight="1169" math="0" shadow="0">
      <root>
        <mxCell id="0" />
        <mxCell id="1" parent="0" />
        <mxCell id="JNh_gQKuWHe_ySaOZuFU-6" value="" style="edgeStyle=orthogonalEdgeStyle;rounded=0;orthogonalLoop=1;jettySize=auto;html=1;" edge="1" parent="1" source="JNh_gQKuWHe_ySaOZuFU-3" target="JNh_gQKuWHe_ySaOZuFU-4">
          <mxGeometry relative="1" as="geometry" />
        </mxCell>
        <mxCell id="JNh_gQKuWHe_ySaOZuFU-18" value="" style="edgeStyle=orthogonalEdgeStyle;rounded=0;orthogonalLoop=1;jettySize=auto;html=1;" edge="1" parent="1" source="JNh_gQKuWHe_ySaOZuFU-3" target="JNh_gQKuWHe_ySaOZuFU-17">
          <mxGeometry relative="1" as="geometry" />
        </mxCell>
        <mxCell id="JNh_gQKuWHe_ySaOZuFU-3" value="choice是否為0" style="strokeWidth=2;html=1;shape=mxgraph.flowchart.decision;whiteSpace=wrap;" vertex="1" parent="1">
          <mxGeometry x="140" y="190" width="120" height="60" as="geometry" />
        </mxCell>
        <mxCell id="JNh_gQKuWHe_ySaOZuFU-7" value="" style="edgeStyle=orthogonalEdgeStyle;rounded=0;orthogonalLoop=1;jettySize=auto;html=1;" edge="1" parent="1" source="JNh_gQKuWHe_ySaOZuFU-4" target="JNh_gQKuWHe_ySaOZuFU-5">
          <mxGeometry relative="1" as="geometry" />
        </mxCell>
        <mxCell id="JNh_gQKuWHe_ySaOZuFU-40" value="" style="edgeStyle=orthogonalEdgeStyle;rounded=0;orthogonalLoop=1;jettySize=auto;html=1;" edge="1" parent="1" source="JNh_gQKuWHe_ySaOZuFU-4" target="JNh_gQKuWHe_ySaOZuFU-28">
          <mxGeometry relative="1" as="geometry" />
        </mxCell>
        <mxCell id="JNh_gQKuWHe_ySaOZuFU-4" value="choice是否為1" style="strokeWidth=2;html=1;shape=mxgraph.flowchart.decision;whiteSpace=wrap;" vertex="1" parent="1">
          <mxGeometry x="140" y="280" width="120" height="60" as="geometry" />
        </mxCell>
        <mxCell id="JNh_gQKuWHe_ySaOZuFU-52" value="" style="edgeStyle=orthogonalEdgeStyle;rounded=0;orthogonalLoop=1;jettySize=auto;html=1;" edge="1" parent="1" source="JNh_gQKuWHe_ySaOZuFU-5" target="JNh_gQKuWHe_ySaOZuFU-51">
          <mxGeometry relative="1" as="geometry" />
        </mxCell>
        <mxCell id="JNh_gQKuWHe_ySaOZuFU-79" style="edgeStyle=orthogonalEdgeStyle;rounded=0;orthogonalLoop=1;jettySize=auto;html=1;exitX=0;exitY=0.5;exitDx=0;exitDy=0;exitPerimeter=0;entryX=0;entryY=0.5;entryDx=0;entryDy=0;entryPerimeter=0;" edge="1" parent="1" target="JNh_gQKuWHe_ySaOZuFU-77">
          <mxGeometry relative="1" as="geometry">
            <mxPoint x="150" y="130" as="targetPoint" />
            <mxPoint x="150" y="400" as="sourcePoint" />
            <Array as="points">
              <mxPoint x="100" y="400" />
              <mxPoint x="100" y="130" />
            </Array>
          </mxGeometry>
        </mxCell>
        <mxCell id="JNh_gQKuWHe_ySaOZuFU-5" value="choice是否為2" style="strokeWidth=2;html=1;shape=mxgraph.flowchart.decision;whiteSpace=wrap;" vertex="1" parent="1">
          <mxGeometry x="140" y="370" width="120" height="60" as="geometry" />
        </mxCell>
        <mxCell id="JNh_gQKuWHe_ySaOZuFU-19" value="" style="edgeStyle=orthogonalEdgeStyle;rounded=0;orthogonalLoop=1;jettySize=auto;html=1;entryX=0.5;entryY=0;entryDx=0;entryDy=0;entryPerimeter=0;" edge="1" parent="1" source="JNh_gQKuWHe_ySaOZuFU-11" target="JNh_gQKuWHe_ySaOZuFU-77">
          <mxGeometry relative="1" as="geometry">
            <mxPoint x="200" y="90" as="targetPoint" />
          </mxGeometry>
        </mxCell>
        <mxCell id="JNh_gQKuWHe_ySaOZuFU-11" value="程式開始" style="strokeWidth=2;html=1;shape=mxgraph.flowchart.start_1;whiteSpace=wrap;" vertex="1" parent="1">
          <mxGeometry x="150" y="10" width="100" height="60" as="geometry" />
        </mxCell>
        <mxCell id="JNh_gQKuWHe_ySaOZuFU-17" value="end" style="strokeWidth=2;html=1;shape=mxgraph.flowchart.start_1;whiteSpace=wrap;" vertex="1" parent="1">
          <mxGeometry x="290" y="190" width="100" height="60" as="geometry" />
        </mxCell>
        <mxCell id="JNh_gQKuWHe_ySaOZuFU-42" value="" style="edgeStyle=orthogonalEdgeStyle;rounded=0;orthogonalLoop=1;jettySize=auto;html=1;" edge="1" parent="1" source="JNh_gQKuWHe_ySaOZuFU-20" target="JNh_gQKuWHe_ySaOZuFU-23">
          <mxGeometry relative="1" as="geometry" />
        </mxCell>
        <mxCell id="JNh_gQKuWHe_ySaOZuFU-20" value="輸入的數字&lt;div&gt;是否合法&lt;/div&gt;" style="strokeWidth=2;html=1;shape=mxgraph.flowchart.decision;whiteSpace=wrap;" vertex="1" parent="1">
          <mxGeometry x="450" y="280" width="120" height="60" as="geometry" />
        </mxCell>
        <mxCell id="JNh_gQKuWHe_ySaOZuFU-22" value="True" style="text;html=1;align=center;verticalAlign=middle;resizable=0;points=[];autosize=1;strokeColor=none;fillColor=none;" vertex="1" parent="1">
          <mxGeometry x="251" y="285" width="50" height="30" as="geometry" />
        </mxCell>
        <mxCell id="JNh_gQKuWHe_ySaOZuFU-44" style="edgeStyle=orthogonalEdgeStyle;rounded=0;orthogonalLoop=1;jettySize=auto;html=1;exitX=0.5;exitY=1;exitDx=0;exitDy=0;exitPerimeter=0;" edge="1" parent="1" source="JNh_gQKuWHe_ySaOZuFU-23">
          <mxGeometry relative="1" as="geometry">
            <mxPoint x="510" y="360" as="targetPoint" />
            <Array as="points">
              <mxPoint x="660" y="360" />
            </Array>
          </mxGeometry>
        </mxCell>
        <mxCell id="JNh_gQKuWHe_ySaOZuFU-48" value="" style="edgeStyle=orthogonalEdgeStyle;rounded=0;orthogonalLoop=1;jettySize=auto;html=1;" edge="1" parent="1" source="JNh_gQKuWHe_ySaOZuFU-23" target="JNh_gQKuWHe_ySaOZuFU-45">
          <mxGeometry relative="1" as="geometry" />
        </mxCell>
        <mxCell id="JNh_gQKuWHe_ySaOZuFU-23" value="輸入的數字&lt;div&gt;是否&amp;lt;1或&amp;gt;999999&lt;/div&gt;" style="strokeWidth=2;html=1;shape=mxgraph.flowchart.decision;whiteSpace=wrap;" vertex="1" parent="1">
          <mxGeometry x="600" y="280" width="120" height="60" as="geometry" />
        </mxCell>
        <mxCell id="JNh_gQKuWHe_ySaOZuFU-41" value="" style="edgeStyle=orthogonalEdgeStyle;rounded=0;orthogonalLoop=1;jettySize=auto;html=1;" edge="1" parent="1" source="JNh_gQKuWHe_ySaOZuFU-28" target="JNh_gQKuWHe_ySaOZuFU-20">
          <mxGeometry relative="1" as="geometry" />
        </mxCell>
        <mxCell id="JNh_gQKuWHe_ySaOZuFU-28" value="&lt;p style=&quot;line-height: 120%;&quot;&gt;&lt;br&gt;&lt;/p&gt;" style="html=1;strokeWidth=2;shape=manualInput;whiteSpace=wrap;rounded=1;size=26;arcSize=11;align=center;" vertex="1" parent="1">
          <mxGeometry x="301" y="285" width="110" height="50" as="geometry" />
        </mxCell>
        <mxCell id="JNh_gQKuWHe_ySaOZuFU-36" value="輸入想排列的數字" style="text;html=1;align=center;verticalAlign=middle;resizable=0;points=[];autosize=1;strokeColor=none;fillColor=none;" vertex="1" parent="1">
          <mxGeometry x="296" y="305" width="120" height="30" as="geometry" />
        </mxCell>
        <mxCell id="JNh_gQKuWHe_ySaOZuFU-43" style="edgeStyle=orthogonalEdgeStyle;rounded=0;orthogonalLoop=1;jettySize=auto;html=1;exitX=0.5;exitY=1;exitDx=0;exitDy=0;exitPerimeter=0;entryX=0.504;entryY=0.971;entryDx=0;entryDy=0;entryPerimeter=0;" edge="1" parent="1" source="JNh_gQKuWHe_ySaOZuFU-20" target="JNh_gQKuWHe_ySaOZuFU-36">
          <mxGeometry relative="1" as="geometry" />
        </mxCell>
        <mxCell id="JNh_gQKuWHe_ySaOZuFU-135" value="" style="edgeStyle=orthogonalEdgeStyle;rounded=0;orthogonalLoop=1;jettySize=auto;html=1;" edge="1" parent="1" source="JNh_gQKuWHe_ySaOZuFU-45" target="JNh_gQKuWHe_ySaOZuFU-134">
          <mxGeometry relative="1" as="geometry" />
        </mxCell>
        <mxCell id="JNh_gQKuWHe_ySaOZuFU-45" value="" style="verticalLabelPosition=bottom;verticalAlign=top;html=1;shape=process;whiteSpace=wrap;rounded=1;size=0.14;arcSize=6;" vertex="1" parent="1">
          <mxGeometry x="755" y="290" width="95" height="40" as="geometry" />
        </mxCell>
        <mxCell id="JNh_gQKuWHe_ySaOZuFU-49" value="Permutation" style="text;html=1;align=center;verticalAlign=middle;resizable=0;points=[];autosize=1;strokeColor=none;fillColor=none;" vertex="1" parent="1">
          <mxGeometry x="757.5" y="295" width="90" height="30" as="geometry" />
        </mxCell>
        <mxCell id="JNh_gQKuWHe_ySaOZuFU-51" value="&lt;p style=&quot;line-height: 120%;&quot;&gt;&lt;br&gt;&lt;/p&gt;" style="html=1;strokeWidth=2;shape=manualInput;whiteSpace=wrap;rounded=1;size=26;arcSize=11;align=center;" vertex="1" parent="1">
          <mxGeometry x="301" y="375" width="110" height="50" as="geometry" />
        </mxCell>
        <mxCell id="JNh_gQKuWHe_ySaOZuFU-62" value="" style="edgeStyle=orthogonalEdgeStyle;rounded=0;orthogonalLoop=1;jettySize=auto;html=1;" edge="1" parent="1" source="JNh_gQKuWHe_ySaOZuFU-53" target="JNh_gQKuWHe_ySaOZuFU-54">
          <mxGeometry relative="1" as="geometry">
            <Array as="points">
              <mxPoint x="420" y="405" />
              <mxPoint x="420" y="405" />
            </Array>
          </mxGeometry>
        </mxCell>
        <mxCell id="JNh_gQKuWHe_ySaOZuFU-53" value="輸入想排列幾個" style="text;html=1;align=center;verticalAlign=middle;resizable=0;points=[];autosize=1;strokeColor=none;fillColor=none;" vertex="1" parent="1">
          <mxGeometry x="301" y="395" width="110" height="30" as="geometry" />
        </mxCell>
        <mxCell id="JNh_gQKuWHe_ySaOZuFU-55" style="edgeStyle=orthogonalEdgeStyle;rounded=0;orthogonalLoop=1;jettySize=auto;html=1;entryX=0.53;entryY=1;entryDx=0;entryDy=0;entryPerimeter=0;" edge="1" parent="1" source="JNh_gQKuWHe_ySaOZuFU-54" target="JNh_gQKuWHe_ySaOZuFU-53">
          <mxGeometry relative="1" as="geometry">
            <mxPoint x="350" y="480" as="targetPoint" />
            <Array as="points">
              <mxPoint x="510" y="450" />
              <mxPoint x="359" y="450" />
            </Array>
          </mxGeometry>
        </mxCell>
        <mxCell id="JNh_gQKuWHe_ySaOZuFU-61" value="" style="edgeStyle=orthogonalEdgeStyle;rounded=0;orthogonalLoop=1;jettySize=auto;html=1;" edge="1" parent="1" source="JNh_gQKuWHe_ySaOZuFU-54" target="JNh_gQKuWHe_ySaOZuFU-57">
          <mxGeometry relative="1" as="geometry" />
        </mxCell>
        <mxCell id="JNh_gQKuWHe_ySaOZuFU-54" value="是否為2~9" style="strokeWidth=2;html=1;shape=mxgraph.flowchart.decision;whiteSpace=wrap;" vertex="1" parent="1">
          <mxGeometry x="450" y="375" width="120" height="60" as="geometry" />
        </mxCell>
        <mxCell id="JNh_gQKuWHe_ySaOZuFU-57" value="&lt;p style=&quot;line-height: 120%;&quot;&gt;&lt;br&gt;&lt;/p&gt;" style="html=1;strokeWidth=2;shape=manualInput;whiteSpace=wrap;rounded=1;size=26;arcSize=11;align=center;" vertex="1" parent="1">
          <mxGeometry x="605" y="380" width="110" height="50" as="geometry" />
        </mxCell>
        <mxCell id="JNh_gQKuWHe_ySaOZuFU-65" value="" style="edgeStyle=orthogonalEdgeStyle;rounded=0;orthogonalLoop=1;jettySize=auto;html=1;exitX=0.979;exitY=0.152;exitDx=0;exitDy=0;exitPerimeter=0;" edge="1" parent="1" source="JNh_gQKuWHe_ySaOZuFU-58" target="JNh_gQKuWHe_ySaOZuFU-63">
          <mxGeometry relative="1" as="geometry">
            <Array as="points" />
          </mxGeometry>
        </mxCell>
        <mxCell id="JNh_gQKuWHe_ySaOZuFU-58" value="輸入要排列的數字" style="text;html=1;align=center;verticalAlign=middle;resizable=0;points=[];autosize=1;strokeColor=none;fillColor=none;" vertex="1" parent="1">
          <mxGeometry x="600" y="400" width="120" height="30" as="geometry" />
        </mxCell>
        <mxCell id="JNh_gQKuWHe_ySaOZuFU-67" value="" style="edgeStyle=orthogonalEdgeStyle;rounded=0;orthogonalLoop=1;jettySize=auto;html=1;" edge="1" parent="1" source="JNh_gQKuWHe_ySaOZuFU-63" target="JNh_gQKuWHe_ySaOZuFU-66">
          <mxGeometry relative="1" as="geometry" />
        </mxCell>
        <mxCell id="JNh_gQKuWHe_ySaOZuFU-71" style="edgeStyle=orthogonalEdgeStyle;rounded=0;orthogonalLoop=1;jettySize=auto;html=1;exitX=0.5;exitY=1;exitDx=0;exitDy=0;exitPerimeter=0;entryX=0.503;entryY=1.073;entryDx=0;entryDy=0;entryPerimeter=0;" edge="1" parent="1" source="JNh_gQKuWHe_ySaOZuFU-63" target="JNh_gQKuWHe_ySaOZuFU-58">
          <mxGeometry relative="1" as="geometry">
            <mxPoint x="660" y="440" as="targetPoint" />
            <Array as="points">
              <mxPoint x="810" y="460" />
              <mxPoint x="660" y="460" />
            </Array>
          </mxGeometry>
        </mxCell>
        <mxCell id="JNh_gQKuWHe_ySaOZuFU-63" value="沒有重複" style="strokeWidth=2;html=1;shape=mxgraph.flowchart.decision;whiteSpace=wrap;" vertex="1" parent="1">
          <mxGeometry x="750" y="375" width="120" height="60" as="geometry" />
        </mxCell>
        <mxCell id="JNh_gQKuWHe_ySaOZuFU-72" style="edgeStyle=orthogonalEdgeStyle;rounded=0;orthogonalLoop=1;jettySize=auto;html=1;exitX=0.5;exitY=1;exitDx=0;exitDy=0;exitPerimeter=0;" edge="1" parent="1" source="JNh_gQKuWHe_ySaOZuFU-66">
          <mxGeometry relative="1" as="geometry">
            <mxPoint x="810" y="460" as="targetPoint" />
            <Array as="points">
              <mxPoint x="960" y="460" />
            </Array>
          </mxGeometry>
        </mxCell>
        <mxCell id="JNh_gQKuWHe_ySaOZuFU-76" style="edgeStyle=orthogonalEdgeStyle;rounded=0;orthogonalLoop=1;jettySize=auto;html=1;exitX=1;exitY=0.5;exitDx=0;exitDy=0;exitPerimeter=0;entryX=0;entryY=0.5;entryDx=0;entryDy=0;" edge="1" parent="1" source="JNh_gQKuWHe_ySaOZuFU-66">
          <mxGeometry relative="1" as="geometry">
            <mxPoint x="1050" y="405" as="targetPoint" />
          </mxGeometry>
        </mxCell>
        <mxCell id="JNh_gQKuWHe_ySaOZuFU-66" value="已經輸入&lt;div&gt;到&lt;span style=&quot;background-color: initial;&quot;&gt;第n個&lt;/span&gt;&lt;/div&gt;" style="strokeWidth=2;html=1;shape=mxgraph.flowchart.decision;whiteSpace=wrap;" vertex="1" parent="1">
          <mxGeometry x="900" y="375" width="120" height="60" as="geometry" />
        </mxCell>
        <mxCell id="JNh_gQKuWHe_ySaOZuFU-78" style="edgeStyle=orthogonalEdgeStyle;rounded=0;orthogonalLoop=1;jettySize=auto;html=1;entryX=0.5;entryY=0;entryDx=0;entryDy=0;entryPerimeter=0;" edge="1" parent="1" source="JNh_gQKuWHe_ySaOZuFU-77" target="JNh_gQKuWHe_ySaOZuFU-3">
          <mxGeometry relative="1" as="geometry">
            <mxPoint x="200" y="180" as="targetPoint" />
            <Array as="points" />
          </mxGeometry>
        </mxCell>
        <mxCell id="JNh_gQKuWHe_ySaOZuFU-77" value="True" style="strokeWidth=2;html=1;shape=mxgraph.flowchart.decision;whiteSpace=wrap;" vertex="1" parent="1">
          <mxGeometry x="140" y="100" width="120" height="60" as="geometry" />
        </mxCell>
        <mxCell id="JNh_gQKuWHe_ySaOZuFU-80" value="True" style="text;html=1;align=center;verticalAlign=middle;resizable=0;points=[];autosize=1;strokeColor=none;fillColor=none;" vertex="1" parent="1">
          <mxGeometry x="246" y="190" width="50" height="30" as="geometry" />
        </mxCell>
        <mxCell id="JNh_gQKuWHe_ySaOZuFU-81" value="False" style="text;html=1;align=center;verticalAlign=middle;resizable=0;points=[];autosize=1;strokeColor=none;fillColor=none;" vertex="1" parent="1">
          <mxGeometry x="196" y="250" width="50" height="30" as="geometry" />
        </mxCell>
        <mxCell id="JNh_gQKuWHe_ySaOZuFU-82" value="True" style="text;html=1;align=center;verticalAlign=middle;resizable=0;points=[];autosize=1;strokeColor=none;fillColor=none;" vertex="1" parent="1">
          <mxGeometry x="555" y="285" width="50" height="30" as="geometry" />
        </mxCell>
        <mxCell id="JNh_gQKuWHe_ySaOZuFU-83" value="False" style="text;html=1;align=center;verticalAlign=middle;resizable=0;points=[];autosize=1;strokeColor=none;fillColor=none;" vertex="1" parent="1">
          <mxGeometry x="196" y="340" width="50" height="30" as="geometry" />
        </mxCell>
        <mxCell id="JNh_gQKuWHe_ySaOZuFU-84" value="True" style="text;html=1;align=center;verticalAlign=middle;resizable=0;points=[];autosize=1;strokeColor=none;fillColor=none;" vertex="1" parent="1">
          <mxGeometry x="250" y="375" width="50" height="30" as="geometry" />
        </mxCell>
        <mxCell id="JNh_gQKuWHe_ySaOZuFU-85" value="False" style="text;html=1;align=center;verticalAlign=middle;resizable=0;points=[];autosize=1;strokeColor=none;fillColor=none;" vertex="1" parent="1">
          <mxGeometry x="95" y="376" width="50" height="30" as="geometry" />
        </mxCell>
        <mxCell id="JNh_gQKuWHe_ySaOZuFU-86" value="True" style="text;html=1;align=center;verticalAlign=middle;resizable=0;points=[];autosize=1;strokeColor=none;fillColor=none;" vertex="1" parent="1">
          <mxGeometry x="705" y="285" width="50" height="30" as="geometry" />
        </mxCell>
        <mxCell id="JNh_gQKuWHe_ySaOZuFU-87" value="False" style="text;html=1;align=center;verticalAlign=middle;resizable=0;points=[];autosize=1;strokeColor=none;fillColor=none;" vertex="1" parent="1">
          <mxGeometry x="504" y="334" width="50" height="30" as="geometry" />
        </mxCell>
        <mxCell id="JNh_gQKuWHe_ySaOZuFU-88" value="False" style="text;html=1;align=center;verticalAlign=middle;resizable=0;points=[];autosize=1;strokeColor=none;fillColor=none;" vertex="1" parent="1">
          <mxGeometry x="655" y="335" width="50" height="30" as="geometry" />
        </mxCell>
        <mxCell id="JNh_gQKuWHe_ySaOZuFU-89" value="True" style="text;html=1;align=center;verticalAlign=middle;resizable=0;points=[];autosize=1;strokeColor=none;fillColor=none;" vertex="1" parent="1">
          <mxGeometry x="555" y="380" width="50" height="30" as="geometry" />
        </mxCell>
        <mxCell id="JNh_gQKuWHe_ySaOZuFU-90" value="False" style="text;html=1;align=center;verticalAlign=middle;resizable=0;points=[];autosize=1;strokeColor=none;fillColor=none;" vertex="1" parent="1">
          <mxGeometry x="503" y="428" width="50" height="30" as="geometry" />
        </mxCell>
        <mxCell id="JNh_gQKuWHe_ySaOZuFU-91" value="True" style="text;html=1;align=center;verticalAlign=middle;resizable=0;points=[];autosize=1;strokeColor=none;fillColor=none;" vertex="1" parent="1">
          <mxGeometry x="856" y="378" width="50" height="30" as="geometry" />
        </mxCell>
        <mxCell id="JNh_gQKuWHe_ySaOZuFU-92" value="False" style="text;html=1;align=center;verticalAlign=middle;resizable=0;points=[];autosize=1;strokeColor=none;fillColor=none;" vertex="1" parent="1">
          <mxGeometry x="804" y="431" width="50" height="30" as="geometry" />
        </mxCell>
        <mxCell id="JNh_gQKuWHe_ySaOZuFU-93" value="True" style="text;html=1;align=center;verticalAlign=middle;resizable=0;points=[];autosize=1;strokeColor=none;fillColor=none;" vertex="1" parent="1">
          <mxGeometry x="1004" y="379" width="50" height="30" as="geometry" />
        </mxCell>
        <mxCell id="JNh_gQKuWHe_ySaOZuFU-94" value="False" style="text;html=1;align=center;verticalAlign=middle;resizable=0;points=[];autosize=1;strokeColor=none;fillColor=none;" vertex="1" parent="1">
          <mxGeometry x="955" y="433" width="50" height="30" as="geometry" />
        </mxCell>
        <mxCell id="JNh_gQKuWHe_ySaOZuFU-95" value="" style="verticalLabelPosition=bottom;verticalAlign=top;html=1;shape=process;whiteSpace=wrap;rounded=1;size=0.14;arcSize=6;" vertex="1" parent="1">
          <mxGeometry x="1050" y="385" width="95" height="40" as="geometry" />
        </mxCell>
        <mxCell id="JNh_gQKuWHe_ySaOZuFU-138" value="" style="edgeStyle=orthogonalEdgeStyle;rounded=0;orthogonalLoop=1;jettySize=auto;html=1;" edge="1" parent="1" source="JNh_gQKuWHe_ySaOZuFU-96" target="JNh_gQKuWHe_ySaOZuFU-137">
          <mxGeometry relative="1" as="geometry" />
        </mxCell>
        <mxCell id="JNh_gQKuWHe_ySaOZuFU-96" value="Permutation" style="text;html=1;align=center;verticalAlign=middle;resizable=0;points=[];autosize=1;strokeColor=none;fillColor=none;" vertex="1" parent="1">
          <mxGeometry x="1052.5" y="390" width="90" height="30" as="geometry" />
        </mxCell>
        <mxCell id="JNh_gQKuWHe_ySaOZuFU-102" value="" style="edgeStyle=orthogonalEdgeStyle;rounded=0;orthogonalLoop=1;jettySize=auto;html=1;" edge="1" parent="1" source="JNh_gQKuWHe_ySaOZuFU-99" target="JNh_gQKuWHe_ySaOZuFU-101">
          <mxGeometry relative="1" as="geometry" />
        </mxCell>
        <mxCell id="JNh_gQKuWHe_ySaOZuFU-99" value="Permutation" style="strokeWidth=2;html=1;shape=mxgraph.flowchart.start_1;whiteSpace=wrap;" vertex="1" parent="1">
          <mxGeometry x="70" y="542" width="100" height="60" as="geometry" />
        </mxCell>
        <mxCell id="JNh_gQKuWHe_ySaOZuFU-104" value="" style="edgeStyle=orthogonalEdgeStyle;rounded=0;orthogonalLoop=1;jettySize=auto;html=1;" edge="1" parent="1" source="JNh_gQKuWHe_ySaOZuFU-101" target="JNh_gQKuWHe_ySaOZuFU-103">
          <mxGeometry relative="1" as="geometry" />
        </mxCell>
        <mxCell id="JNh_gQKuWHe_ySaOZuFU-106" value="" style="edgeStyle=orthogonalEdgeStyle;rounded=0;orthogonalLoop=1;jettySize=auto;html=1;" edge="1" parent="1" source="JNh_gQKuWHe_ySaOZuFU-101" target="JNh_gQKuWHe_ySaOZuFU-105">
          <mxGeometry relative="1" as="geometry" />
        </mxCell>
        <mxCell id="JNh_gQKuWHe_ySaOZuFU-101" value="目前深度&lt;div&gt;大於最大深度&lt;/div&gt;" style="strokeWidth=2;html=1;shape=mxgraph.flowchart.decision;whiteSpace=wrap;" vertex="1" parent="1">
          <mxGeometry x="196" y="542" width="120" height="60" as="geometry" />
        </mxCell>
        <mxCell id="JNh_gQKuWHe_ySaOZuFU-112" style="edgeStyle=orthogonalEdgeStyle;rounded=0;orthogonalLoop=1;jettySize=auto;html=1;exitX=1;exitY=0.5;exitDx=0;exitDy=0;" edge="1" parent="1" source="JNh_gQKuWHe_ySaOZuFU-103">
          <mxGeometry relative="1" as="geometry">
            <mxPoint x="330" y="572" as="targetPoint" />
          </mxGeometry>
        </mxCell>
        <mxCell id="JNh_gQKuWHe_ySaOZuFU-103" value="更新最大深度" style="rounded=1;whiteSpace=wrap;html=1;absoluteArcSize=1;arcSize=14;strokeWidth=2;" vertex="1" parent="1">
          <mxGeometry x="206" y="480" width="100" height="40" as="geometry" />
        </mxCell>
        <mxCell id="JNh_gQKuWHe_ySaOZuFU-109" value="" style="edgeStyle=orthogonalEdgeStyle;rounded=0;orthogonalLoop=1;jettySize=auto;html=1;" edge="1" parent="1" source="JNh_gQKuWHe_ySaOZuFU-105" target="JNh_gQKuWHe_ySaOZuFU-108">
          <mxGeometry relative="1" as="geometry" />
        </mxCell>
        <mxCell id="JNh_gQKuWHe_ySaOZuFU-127" value="" style="edgeStyle=orthogonalEdgeStyle;rounded=0;orthogonalLoop=1;jettySize=auto;html=1;" edge="1" parent="1" source="JNh_gQKuWHe_ySaOZuFU-105" target="JNh_gQKuWHe_ySaOZuFU-117">
          <mxGeometry relative="1" as="geometry" />
        </mxCell>
        <mxCell id="JNh_gQKuWHe_ySaOZuFU-105" value="i = n" style="strokeWidth=2;html=1;shape=mxgraph.flowchart.decision;whiteSpace=wrap;" vertex="1" parent="1">
          <mxGeometry x="350" y="542" width="120" height="60" as="geometry" />
        </mxCell>
        <mxCell id="JNh_gQKuWHe_ySaOZuFU-114" value="" style="edgeStyle=orthogonalEdgeStyle;rounded=0;orthogonalLoop=1;jettySize=auto;html=1;" edge="1" parent="1" source="JNh_gQKuWHe_ySaOZuFU-108" target="JNh_gQKuWHe_ySaOZuFU-113">
          <mxGeometry relative="1" as="geometry" />
        </mxCell>
        <mxCell id="JNh_gQKuWHe_ySaOZuFU-108" value="印出目前arr" style="rounded=1;whiteSpace=wrap;html=1;absoluteArcSize=1;arcSize=14;strokeWidth=2;" vertex="1" parent="1">
          <mxGeometry x="360" y="480" width="100" height="40" as="geometry" />
        </mxCell>
        <mxCell id="JNh_gQKuWHe_ySaOZuFU-110" value="True" style="text;html=1;align=center;verticalAlign=middle;resizable=0;points=[];autosize=1;strokeColor=none;fillColor=none;" vertex="1" parent="1">
          <mxGeometry x="250" y="520" width="50" height="30" as="geometry" />
        </mxCell>
        <mxCell id="JNh_gQKuWHe_ySaOZuFU-111" value="True" style="text;html=1;align=center;verticalAlign=middle;resizable=0;points=[];autosize=1;strokeColor=none;fillColor=none;" vertex="1" parent="1">
          <mxGeometry x="404" y="521" width="50" height="30" as="geometry" />
        </mxCell>
        <mxCell id="JNh_gQKuWHe_ySaOZuFU-113" value="end" style="strokeWidth=2;html=1;shape=mxgraph.flowchart.start_1;whiteSpace=wrap;" vertex="1" parent="1">
          <mxGeometry x="489" y="470" width="100" height="60" as="geometry" />
        </mxCell>
        <mxCell id="JNh_gQKuWHe_ySaOZuFU-129" value="" style="edgeStyle=orthogonalEdgeStyle;rounded=0;orthogonalLoop=1;jettySize=auto;html=1;" edge="1" parent="1" source="JNh_gQKuWHe_ySaOZuFU-115" target="JNh_gQKuWHe_ySaOZuFU-119">
          <mxGeometry relative="1" as="geometry" />
        </mxCell>
        <mxCell id="JNh_gQKuWHe_ySaOZuFU-115" value="j &amp;lt;= n" style="strokeWidth=2;html=1;shape=mxgraph.flowchart.decision;whiteSpace=wrap;" vertex="1" parent="1">
          <mxGeometry x="580" y="542" width="120" height="60" as="geometry" />
        </mxCell>
        <mxCell id="JNh_gQKuWHe_ySaOZuFU-128" value="" style="edgeStyle=orthogonalEdgeStyle;rounded=0;orthogonalLoop=1;jettySize=auto;html=1;" edge="1" parent="1" source="JNh_gQKuWHe_ySaOZuFU-117" target="JNh_gQKuWHe_ySaOZuFU-115">
          <mxGeometry relative="1" as="geometry" />
        </mxCell>
        <mxCell id="JNh_gQKuWHe_ySaOZuFU-117" value="i = j" style="rounded=1;whiteSpace=wrap;html=1;absoluteArcSize=1;arcSize=14;strokeWidth=2;" vertex="1" parent="1">
          <mxGeometry x="490" y="552" width="60" height="40" as="geometry" />
        </mxCell>
        <mxCell id="JNh_gQKuWHe_ySaOZuFU-130" value="" style="edgeStyle=orthogonalEdgeStyle;rounded=0;orthogonalLoop=1;jettySize=auto;html=1;" edge="1" parent="1" source="JNh_gQKuWHe_ySaOZuFU-119" target="JNh_gQKuWHe_ySaOZuFU-122">
          <mxGeometry relative="1" as="geometry" />
        </mxCell>
        <mxCell id="JNh_gQKuWHe_ySaOZuFU-119" value="arr[i] 和 arr[j] 交換，&lt;div&gt;從第arr[i+1]排序到最後&lt;/div&gt;" style="rounded=1;whiteSpace=wrap;html=1;absoluteArcSize=1;arcSize=14;strokeWidth=2;" vertex="1" parent="1">
          <mxGeometry x="725" y="551" width="130" height="42" as="geometry" />
        </mxCell>
        <mxCell id="JNh_gQKuWHe_ySaOZuFU-131" value="" style="edgeStyle=orthogonalEdgeStyle;rounded=0;orthogonalLoop=1;jettySize=auto;html=1;" edge="1" parent="1" source="JNh_gQKuWHe_ySaOZuFU-121" target="JNh_gQKuWHe_ySaOZuFU-123">
          <mxGeometry relative="1" as="geometry" />
        </mxCell>
        <mxCell id="JNh_gQKuWHe_ySaOZuFU-121" value="" style="verticalLabelPosition=bottom;verticalAlign=top;html=1;shape=process;whiteSpace=wrap;rounded=1;size=0.14;arcSize=6;" vertex="1" parent="1">
          <mxGeometry x="880" y="552" width="95" height="40" as="geometry" />
        </mxCell>
        <mxCell id="JNh_gQKuWHe_ySaOZuFU-122" value="Permutation" style="text;html=1;align=center;verticalAlign=middle;resizable=0;points=[];autosize=1;strokeColor=none;fillColor=none;" vertex="1" parent="1">
          <mxGeometry x="882.5" y="557" width="90" height="30" as="geometry" />
        </mxCell>
        <mxCell id="JNh_gQKuWHe_ySaOZuFU-124" style="edgeStyle=orthogonalEdgeStyle;rounded=0;orthogonalLoop=1;jettySize=auto;html=1;entryX=0.5;entryY=1;entryDx=0;entryDy=0;entryPerimeter=0;" edge="1" parent="1" source="JNh_gQKuWHe_ySaOZuFU-123" target="JNh_gQKuWHe_ySaOZuFU-115">
          <mxGeometry relative="1" as="geometry">
            <mxPoint x="640" y="650" as="targetPoint" />
            <Array as="points">
              <mxPoint x="1065" y="630" />
              <mxPoint x="640" y="630" />
            </Array>
          </mxGeometry>
        </mxCell>
        <mxCell id="JNh_gQKuWHe_ySaOZuFU-125" value="&amp;nbsp;j++&amp;nbsp;" style="edgeLabel;html=1;align=center;verticalAlign=middle;resizable=0;points=[];" vertex="1" connectable="0" parent="JNh_gQKuWHe_ySaOZuFU-124">
          <mxGeometry x="0.0187" y="-1" relative="1" as="geometry">
            <mxPoint as="offset" />
          </mxGeometry>
        </mxCell>
        <mxCell id="JNh_gQKuWHe_ySaOZuFU-123" value="&lt;div&gt;從第arr[i+1]排序到最後&lt;br&gt;&lt;/div&gt;，arr[i] 和 arr[j] 交換" style="rounded=1;whiteSpace=wrap;html=1;absoluteArcSize=1;arcSize=14;strokeWidth=2;" vertex="1" parent="1">
          <mxGeometry x="1000" y="551" width="130" height="42" as="geometry" />
        </mxCell>
        <mxCell id="JNh_gQKuWHe_ySaOZuFU-132" value="False" style="text;html=1;align=center;verticalAlign=middle;resizable=0;points=[];autosize=1;strokeColor=none;fillColor=none;" vertex="1" parent="1">
          <mxGeometry x="446" y="571" width="50" height="30" as="geometry" />
        </mxCell>
        <mxCell id="JNh_gQKuWHe_ySaOZuFU-133" value="False" style="text;html=1;align=center;verticalAlign=middle;resizable=0;points=[];autosize=1;strokeColor=none;fillColor=none;" vertex="1" parent="1">
          <mxGeometry x="304" y="568" width="50" height="30" as="geometry" />
        </mxCell>
        <mxCell id="JNh_gQKuWHe_ySaOZuFU-136" style="edgeStyle=orthogonalEdgeStyle;rounded=0;orthogonalLoop=1;jettySize=auto;html=1;entryX=1;entryY=0.5;entryDx=0;entryDy=0;entryPerimeter=0;" edge="1" parent="1" source="JNh_gQKuWHe_ySaOZuFU-134" target="JNh_gQKuWHe_ySaOZuFU-77">
          <mxGeometry relative="1" as="geometry">
            <mxPoint x="890" y="130" as="targetPoint" />
            <Array as="points">
              <mxPoint x="921" y="130" />
            </Array>
          </mxGeometry>
        </mxCell>
        <mxCell id="JNh_gQKuWHe_ySaOZuFU-134" value="印出排列總次數及遞迴深度" style="rounded=1;whiteSpace=wrap;html=1;absoluteArcSize=1;arcSize=14;strokeWidth=2;" vertex="1" parent="1">
          <mxGeometry x="877.5" y="285" width="87.5" height="50" as="geometry" />
        </mxCell>
        <mxCell id="JNh_gQKuWHe_ySaOZuFU-139" style="edgeStyle=orthogonalEdgeStyle;rounded=0;orthogonalLoop=1;jettySize=auto;html=1;" edge="1" parent="1" source="JNh_gQKuWHe_ySaOZuFU-137">
          <mxGeometry relative="1" as="geometry">
            <mxPoint x="920" y="130" as="targetPoint" />
            <Array as="points">
              <mxPoint x="1224" y="130" />
            </Array>
          </mxGeometry>
        </mxCell>
        <mxCell id="JNh_gQKuWHe_ySaOZuFU-137" value="印出排列總次數及執行時間" style="rounded=1;whiteSpace=wrap;html=1;absoluteArcSize=1;arcSize=14;strokeWidth=2;" vertex="1" parent="1">
          <mxGeometry x="1180" y="380" width="87.5" height="50" as="geometry" />
        </mxCell>
      </root>
    </mxGraphModel>
  </diagram>
</mxfile>
